<svg xmlns="http://www.w3.org/2000/svg" xmlns:xlink="http://www.w3.org/1999/xlink" xmlns:lucid="lucid" width="920" height="160"><g transform="translate(-140 -200)" lucid:page-tab-id="0_0"><path d="M340 220h160v120H340z" stroke="#000" stroke-width="2" fill="url(#a)"/><use xlink:href="#b" transform="matrix(1,0,0,1,345,225) translate(46.525 59.0875)"/><use xlink:href="#c" transform="matrix(1,0,0,1,345,225) translate(93.475 59.0875)"/><path d="M700 220h160v120H700z" stroke="#000" stroke-width="2" fill="url(#d)"/><use xlink:href="#b" transform="matrix(1,0,0,1,705,225) translate(46.525 59.0875)"/><use xlink:href="#e" transform="matrix(1,0,0,1,705,225) translate(93.475 59.0875)"/><path d="M520 260h124v-20l36 40-36 40v-20H520z" stroke="#000" stroke-width="2" fill="url(#f)"/><use xlink:href="#b" transform="matrix(1,0,0,1,525,245) translate(30.549999999999997 38.4625)"/><use xlink:href="#g" transform="matrix(1,0,0,1,525,245) translate(77.5 38.4625)"/><path d="M160 260h124v-20l36 40-36 40v-20H160z" stroke="#000" stroke-width="2" fill="url(#h)"/><use xlink:href="#b" transform="matrix(1,0,0,1,165,245) translate(30.549999999999997 38.4625)"/><use xlink:href="#g" transform="matrix(1,0,0,1,165,245) translate(77.5 38.4625)"/><path d="M880 260h124v-20l36 40-36 40v-20H880z" stroke="#000" stroke-width="2" fill="url(#i)"/><g><use xlink:href="#b" transform="matrix(1,0,0,1,885,245) translate(30.549999999999997 38.4625)"/><use xlink:href="#g" transform="matrix(1,0,0,1,885,245) translate(77.5 38.4625)"/></g><defs><radialGradient gradientUnits="userSpaceOnUse" id="a" fx="420" fy="280" cx="420" cy="280" r="80"><stop offset="0%" stop-color="#fff"/><stop offset="20%" stop-color="#fff"/><stop offset="100%" stop-color="#fcc438"/><stop offset="46.74%" stop-color="#f3f3f3"/></radialGradient><path d="M185-189c-5-48-123-54-124 2 14 75 158 14 163 119 3 78-121 87-175 55-17-10-28-26-33-46l33-7c5 56 141 63 141-1 0-78-155-14-162-118-5-82 145-84 179-34 5 7 8 16 11 25" id="j"/><path d="M59-47c-2 24 18 29 38 22v24C64 9 27 4 27-40v-127H5v-23h24l9-43h21v43h35v23H59v120" id="k"/><path d="M100-194c62-1 85 37 85 99 1 63-27 99-86 99S16-35 15-95c0-66 28-99 85-99zM99-20c44 1 53-31 53-75 0-43-8-75-51-75s-53 32-53 75 10 74 51 75" id="l"/><path d="M114-163C36-179 61-72 57 0H25l-1-190h30c1 12-1 29 2 39 6-27 23-49 58-41v29" id="m"/><path d="M179-190L93 31C79 59 56 82 12 73V49c39 6 53-20 64-50L1-190h34L92-34l54-156h33" id="n"/><g id="b"><use transform="matrix(0.05,0,0,0.05,0,0)" xlink:href="#j"/><use transform="matrix(0.05,0,0,0.05,12,0)" xlink:href="#k"/><use transform="matrix(0.05,0,0,0.05,17,0)" xlink:href="#l"/><use transform="matrix(0.05,0,0,0.05,27,0)" xlink:href="#m"/><use transform="matrix(0.05,0,0,0.05,32.95,0)" xlink:href="#n"/></g><path d="M27 0v-27h64v-190l-56 39v-29l58-41h29v221h61V0H27" id="o"/><use transform="matrix(0.05,0,0,0.05,0,0)" xlink:href="#o" id="c"/><radialGradient gradientUnits="userSpaceOnUse" id="d" fx="780" fy="280" cx="780" cy="280" r="80"><stop offset="0%" stop-color="#fff"/><stop offset="20%" stop-color="#fff"/><stop offset="100%" stop-color="#fcc438"/></radialGradient><path d="M101-251c82-7 93 87 43 132L82-64C71-53 59-42 53-27h129V0H18c2-99 128-94 128-182 0-28-16-43-45-43s-46 15-49 41l-32-3c6-41 34-60 81-64" id="p"/><use transform="matrix(0.05,0,0,0.05,0,0)" xlink:href="#p" id="e"/><linearGradient gradientUnits="userSpaceOnUse" id="f" x1="680" y1="240" x2="680" y2="320"><stop offset="0%" stop-color="#fff"/><stop offset="20%" stop-color="#fff"/><stop offset="100%" stop-color="#7ab648"/></linearGradient><path d="M30-248c118-7 216 8 213 122C240-48 200 0 122 0H30v-248zM63-27c89 8 146-16 146-99s-60-101-146-95v194" id="q"/><path d="M141-36C126-15 110 5 73 4 37 3 15-17 15-53c-1-64 63-63 125-63 3-35-9-54-41-54-24 1-41 7-42 31l-33-3c5-37 33-52 76-52 45 0 72 20 72 64v82c-1 20 7 32 28 27v20c-31 9-61-2-59-35zM48-53c0 20 12 33 32 33 41-3 63-29 60-74-43 2-92-5-92 41" id="r"/><g id="g"><use transform="matrix(0.05,0,0,0.05,0,0)" xlink:href="#q"/><use transform="matrix(0.05,0,0,0.05,12.950000000000001,0)" xlink:href="#r"/><use transform="matrix(0.05,0,0,0.05,22.950000000000003,0)" xlink:href="#k"/><use transform="matrix(0.05,0,0,0.05,27.950000000000003,0)" xlink:href="#r"/></g><linearGradient gradientUnits="userSpaceOnUse" id="h" x1="320" y1="240" x2="320" y2="320"><stop offset="0%" stop-color="#fff"/><stop offset="20%" stop-color="#fff"/><stop offset="100%" stop-color="#7ab648"/></linearGradient><linearGradient gradientUnits="userSpaceOnUse" id="i" x1="880" y1="240" x2="880" y2="320"><stop offset="0%" stop-color="#fff"/><stop offset="20%" stop-color="#fff"/><stop offset="100%" stop-color="#7ab648"/></linearGradient></defs></g></svg>