<svg xmlns="http://www.w3.org/2000/svg" xmlns:xlink="http://www.w3.org/1999/xlink" xmlns:lucid="lucid" width="848.67" height="670"><g transform="translate(-400 0)" lucid:page-tab-id="0_0"><path d="M720 20h160v160H720z" stroke="#000" stroke-width="2" fill="url(#a)"/><use xlink:href="#b" transform="matrix(1,0,0,1,725,25) translate(31.025 80.025)"/><use xlink:href="#c" transform="matrix(1,0,0,1,725,25) translate(77.975 80.025)"/><path d="M520 220h180v170H520z" stroke="#000" stroke-width="2" fill="url(#d)"/><use xlink:href="#e" transform="matrix(1,0,0,1,525,225) translate(53.05 84.4)"/><path d="M600 345c0 13.8-13.43 25-30 25s-30-11.2-30-25 13.43-25 30-25 30 11.2 30 25z" stroke="#000" stroke-width="2" fill="#99d2f2"/><use xlink:href="#f" transform="matrix(1,0,0,1,545,325) translate(4.024999999999999 24.4)"/><path d="M680 345c0 13.8-13.43 25-30 25s-30-11.2-30-25 13.43-25 30-25 30 11.2 30 25z" stroke="#000" stroke-width="2" fill="#99d2f2"/><use xlink:href="#f" transform="matrix(1,0,0,1,625,325) translate(4.024999999999999 24.4)"/><path d="M600 265c0 13.8-13.43 25-30 25s-30-11.2-30-25 13.43-25 30-25 30 11.2 30 25z" stroke="#000" stroke-width="2" fill="#99d2f2"/><use xlink:href="#f" transform="matrix(1,0,0,1,545,245) translate(4.024999999999999 24.4)"/><path d="M680 265c0 13.8-13.43 25-30 25s-30-11.2-30-25 13.43-25 30-25 30 11.2 30 25z" stroke="#000" stroke-width="2" fill="#99d2f2"/><use xlink:href="#f" transform="matrix(1,0,0,1,625,245) translate(4.024999999999999 24.4)"/><path d="M919 220h180v170H919z" stroke="#000" stroke-width="2" fill="url(#g)"/><use xlink:href="#e" transform="matrix(1,0,0,1,924,225) translate(53.05 84.4)"/><path d="M999 345c0 13.8-13.43 25-30 25s-30-11.2-30-25 13.43-25 30-25 30 11.2 30 25z" stroke="#000" stroke-width="2" fill="#99d2f2"/><use xlink:href="#f" transform="matrix(1,0,0,1,944,325) translate(4.024999999999999 24.4)"/><path d="M1079 345c0 13.8-13.43 25-30 25s-30-11.2-30-25 13.43-25 30-25 30 11.2 30 25z" stroke="#000" stroke-width="2" fill="#99d2f2"/><use xlink:href="#f" transform="matrix(1,0,0,1,1024,325) translate(4.024999999999999 24.4)"/><path d="M999 265c0 13.8-13.43 25-30 25s-30-11.2-30-25 13.43-25 30-25 30 11.2 30 25z" stroke="#000" stroke-width="2" fill="#99d2f2"/><use xlink:href="#f" transform="matrix(1,0,0,1,944,245) translate(4.024999999999999 24.4)"/><path d="M1079 265c0 13.8-13.43 25-30 25s-30-11.2-30-25 13.43-25 30-25 30 11.2 30 25z" stroke="#000" stroke-width="2" fill="#99d2f2"/><use xlink:href="#f" transform="matrix(1,0,0,1,1024,245) translate(4.024999999999999 24.4)"/><path d="M420 480h180v170H420z" stroke="#000" stroke-width="2" fill="url(#h)"/><use xlink:href="#e" transform="matrix(1,0,0,1,425,485) translate(53.05 84.4)"/><path d="M500 605c0 13.8-13.43 25-30 25s-30-11.2-30-25 13.43-25 30-25 30 11.2 30 25z" stroke="#000" stroke-width="2" fill="#99d2f2"/><use xlink:href="#f" transform="matrix(1,0,0,1,445,585) translate(4.024999999999999 24.4)"/><path d="M580 605c0 13.8-13.43 25-30 25s-30-11.2-30-25 13.43-25 30-25 30 11.2 30 25z" stroke="#000" stroke-width="2" fill="#99d2f2"/><use xlink:href="#f" transform="matrix(1,0,0,1,525,585) translate(4.024999999999999 24.4)"/><path d="M500 525c0 13.8-13.43 25-30 25s-30-11.2-30-25 13.43-25 30-25 30 11.2 30 25z" stroke="#000" stroke-width="2" fill="#99d2f2"/><use xlink:href="#f" transform="matrix(1,0,0,1,445,505) translate(4.024999999999999 24.4)"/><path d="M580 525c0 13.8-13.43 25-30 25s-30-11.2-30-25 13.43-25 30-25 30 11.2 30 25z" stroke="#000" stroke-width="2" fill="#99d2f2"/><use xlink:href="#f" transform="matrix(1,0,0,1,525,505) translate(4.024999999999999 24.4)"/><path d="M628.67 480h180v170h-180z" stroke="#000" stroke-width="2" fill="url(#i)"/><use xlink:href="#e" transform="matrix(1,0,0,1,633.6666666666663,485) translate(53.05 84.4)"/><path d="M712 605c0 13.8-13.43 25-30 25s-30-11.2-30-25 13.43-25 30-25 30 11.2 30 25z" stroke="#000" stroke-width="2" fill="#99d2f2"/><use xlink:href="#f" transform="matrix(1,0,0,1,657,585) translate(4.024999999999999 24.4)"/><path d="M792 605c0 13.8-13.43 25-30 25s-30-11.2-30-25 13.43-25 30-25 30 11.2 30 25z" stroke="#000" stroke-width="2" fill="#99d2f2"/><use xlink:href="#f" transform="matrix(1,0,0,1,737,585) translate(4.024999999999999 24.4)"/><path d="M712 525c0 13.8-13.43 25-30 25s-30-11.2-30-25 13.43-25 30-25 30 11.2 30 25z" stroke="#000" stroke-width="2" fill="#99d2f2"/><use xlink:href="#f" transform="matrix(1,0,0,1,657,505) translate(4.024999999999999 24.4)"/><path d="M792 525c0 13.8-13.43 25-30 25s-30-11.2-30-25 13.43-25 30-25 30 11.2 30 25z" stroke="#000" stroke-width="2" fill="#99d2f2"/><use xlink:href="#f" transform="matrix(1,0,0,1,737,505) translate(4.024999999999999 24.4)"/><path d="M834.67 480h180v170h-180z" stroke="#000" stroke-width="2" fill="url(#j)"/><use xlink:href="#e" transform="matrix(1,0,0,1,839.6666666666666,485) translate(53.05 84.4)"/><path d="M922.67 605c0 13.8-13.43 25-30 25s-30-11.2-30-25 13.43-25 30-25 30 11.2 30 25z" stroke="#000" stroke-width="2" fill="#99d2f2"/><use xlink:href="#f" transform="matrix(1,0,0,1,867.6666666666666,585) translate(4.024999999999999 24.4)"/><path d="M1002.67 605c0 13.8-13.43 25-30 25s-30-11.2-30-25 13.43-25 30-25 30 11.2 30 25z" stroke="#000" stroke-width="2" fill="#99d2f2"/><use xlink:href="#f" transform="matrix(1,0,0,1,947.6666666666666,585) translate(4.024999999999999 24.4)"/><path d="M922.67 525c0 13.8-13.43 25-30 25s-30-11.2-30-25 13.43-25 30-25 30 11.2 30 25z" stroke="#000" stroke-width="2" fill="#99d2f2"/><use xlink:href="#f" transform="matrix(1,0,0,1,867.6666666666666,505) translate(4.024999999999999 24.4)"/><path d="M1002.67 525c0 13.8-13.43 25-30 25s-30-11.2-30-25 13.43-25 30-25 30 11.2 30 25z" stroke="#000" stroke-width="2" fill="#99d2f2"/><use xlink:href="#f" transform="matrix(1,0,0,1,947.6666666666666,505) translate(4.024999999999999 24.4)"/><path d="M1048.67 480h180v170h-180z" stroke="#000" stroke-width="2" fill="url(#k)"/><use xlink:href="#e" transform="matrix(1,0,0,1,1053.666666666667,485) translate(53.05 84.4)"/><path d="M1128.67 605c0 13.8-13.43 25-30 25s-30-11.2-30-25 13.43-25 30-25 30 11.2 30 25z" stroke="#000" stroke-width="2" fill="#99d2f2"/><use xlink:href="#f" transform="matrix(1,0,0,1,1073.666666666667,585) translate(4.024999999999999 24.4)"/><path d="M1208.67 605c0 13.8-13.43 25-30 25s-30-11.2-30-25 13.43-25 30-25 30 11.2 30 25z" stroke="#000" stroke-width="2" fill="#99d2f2"/><use xlink:href="#f" transform="matrix(1,0,0,1,1153.666666666667,585) translate(4.024999999999999 24.4)"/><path d="M1128.67 525c0 13.8-13.43 25-30 25s-30-11.2-30-25 13.43-25 30-25 30 11.2 30 25z" stroke="#000" stroke-width="2" fill="#99d2f2"/><use xlink:href="#f" transform="matrix(1,0,0,1,1073.666666666667,505) translate(4.024999999999999 24.4)"/><path d="M1208.67 525c0 13.8-13.43 25-30 25s-30-11.2-30-25 13.43-25 30-25 30 11.2 30 25z" stroke="#000" stroke-width="2" fill="#99d2f2"/><use xlink:href="#f" transform="matrix(1,0,0,1,1153.666666666667,505) translate(4.024999999999999 24.4)"/><path d="M718 100H610v100.5" stroke="#000" stroke-width="2" fill="none"/><path d="M719 101h-1.03v-2H719z"/><path d="M610 215.76l-4.64-14.26h9.28z" stroke="#000" stroke-width="2"/><path d="M882 100h127v100.5" stroke="#000" stroke-width="2" fill="none"/><path d="M882.03 101H881v-2h1.03z"/><path d="M1009 215.76l-4.64-14.26h9.28z" stroke="#000" stroke-width="2"/><path d="M610 392v43h-88v25.5" stroke="#000" stroke-width="2" fill="none"/><path d="M611 392.03h-2V391h2z"/><path d="M522 475.76l-4.64-14.26h9.28z" stroke="#000" stroke-width="2"/><path d="M628 392v43h76.67v25.5" stroke="#000" stroke-width="2" fill="none"/><path d="M629 392.03h-2V391h2z"/><path d="M704.67 475.76l-4.64-14.26h9.27z" stroke="#000" stroke-width="2"/><path d="M657.33 392v43h267.34v25.5" stroke="#000" stroke-width="2" fill="none"/><path d="M658.33 392.03h-2V391h2z"/><path d="M924.67 475.76l-4.64-14.26h9.27z" stroke="#000" stroke-width="2"/><path d="M1009 392v43h-84.33v25.5" stroke="#000" stroke-width="2" fill="none"/><path d="M1010 392.03h-2V391h2z"/><path d="M924.67 475.76l-4.64-14.26h9.27z" stroke="#000" stroke-width="2"/><path d="M1025.67 392v43h113v25.5" stroke="#000" stroke-width="2" fill="none"/><path d="M1026.67 392.03h-2V391h2z"/><path d="M1138.67 475.76l-4.64-14.26h9.27z" stroke="#000" stroke-width="2"/><defs><linearGradient gradientUnits="userSpaceOnUse" id="a" x1="880" y1="20" x2="880" y2="180"><stop offset="0%" stop-color="#d0f0b6"/><stop offset="59.28%" stop-color="#a3d977"/><stop offset="100%" stop-color="#80cb44"/></linearGradient><path d="M185-189c-5-48-123-54-124 2 14 75 158 14 163 119 3 78-121 87-175 55-17-10-28-26-33-46l33-7c5 56 141 63 141-1 0-78-155-14-162-118-5-82 145-84 179-34 5 7 8 16 11 25" id="l"/><path d="M59-47c-2 24 18 29 38 22v24C64 9 27 4 27-40v-127H5v-23h24l9-43h21v43h35v23H59v120" id="m"/><path d="M100-194c62-1 85 37 85 99 1 63-27 99-86 99S16-35 15-95c0-66 28-99 85-99zM99-20c44 1 53-31 53-75 0-43-8-75-51-75s-53 32-53 75 10 74 51 75" id="n"/><path d="M114-163C36-179 61-72 57 0H25l-1-190h30c1 12-1 29 2 39 6-27 23-49 58-41v29" id="o"/><path d="M179-190L93 31C79 59 56 82 12 73V49c39 6 53-20 64-50L1-190h34L92-34l54-156h33" id="p"/><g id="b"><use transform="matrix(0.05,0,0,0.05,0,0)" xlink:href="#l"/><use transform="matrix(0.05,0,0,0.05,12,0)" xlink:href="#m"/><use transform="matrix(0.05,0,0,0.05,17,0)" xlink:href="#n"/><use transform="matrix(0.05,0,0,0.05,27,0)" xlink:href="#o"/><use transform="matrix(0.05,0,0,0.05,32.95,0)" xlink:href="#p"/></g><path d="M160-131c35 5 61 23 61 61C221 17 115-2 30 0v-248c76 3 177-17 177 60 0 33-19 50-47 57zm-97-11c50-1 110 9 110-42 0-47-63-36-110-37v79zm0 115c55-2 124 14 124-45 0-56-70-42-124-44v89" id="q"/><path d="M143 0L79-87 56-68V0H24v-261h32v163l83-92h37l-77 82L181 0h-38" id="r"/><g id="c"><use transform="matrix(0.05,0,0,0.05,0,0)" xlink:href="#q"/><use transform="matrix(0.05,0,0,0.05,12,0)" xlink:href="#n"/><use transform="matrix(0.05,0,0,0.05,22,0)" xlink:href="#n"/><use transform="matrix(0.05,0,0,0.05,32,0)" xlink:href="#r"/></g><linearGradient gradientUnits="userSpaceOnUse" id="d" x1="520" y1="220" x2="520" y2="390"><stop offset="0%" stop-color="#ffe299"/><stop offset="59.43%" stop-color="#fcc438"/><stop offset="100%" stop-color="#f4b004"/></linearGradient><path d="M212-179c-10-28-35-45-73-45-59 0-87 40-87 99 0 60 29 101 89 101 43 0 62-24 78-52l27 14C228-24 195 4 139 4 59 4 22-46 18-125c-6-104 99-153 187-111 19 9 31 26 39 46" id="s"/><path d="M106-169C34-169 62-67 57 0H25v-261h32l-1 103c12-21 28-36 61-36 89 0 53 116 60 194h-32v-121c2-32-8-49-39-48" id="t"/><path d="M141-36C126-15 110 5 73 4 37 3 15-17 15-53c-1-64 63-63 125-63 3-35-9-54-41-54-24 1-41 7-42 31l-33-3c5-37 33-52 76-52 45 0 72 20 72 64v82c-1 20 7 32 28 27v20c-31 9-61-2-59-35zM48-53c0 20 12 33 32 33 41-3 63-29 60-74-43 2-92-5-92 41" id="u"/><path d="M115-194c55 1 70 41 70 98S169 2 115 4C84 4 66-9 55-30l1 105H24l-1-265h31l2 30c10-21 28-34 59-34zm-8 174c40 0 45-34 45-75s-6-73-45-74c-42 0-51 32-51 76 0 43 10 73 51 73" id="v"/><path d="M100-194c63 0 86 42 84 106H49c0 40 14 67 53 68 26 1 43-12 49-29l28 8c-11 28-37 45-77 45C44 4 14-33 15-96c1-61 26-98 85-98zm52 81c6-60-76-77-97-28-3 7-6 17-6 28h103" id="w"/><g id="e"><use transform="matrix(0.05,0,0,0.05,0,0)" xlink:href="#s"/><use transform="matrix(0.05,0,0,0.05,12.950000000000001,0)" xlink:href="#t"/><use transform="matrix(0.05,0,0,0.05,22.950000000000003,0)" xlink:href="#u"/><use transform="matrix(0.05,0,0,0.05,32.95,0)" xlink:href="#v"/><use transform="matrix(0.05,0,0,0.05,42.95,0)" xlink:href="#m"/><use transform="matrix(0.05,0,0,0.05,47.95,0)" xlink:href="#w"/><use transform="matrix(0.05,0,0,0.05,57.95,0)" xlink:href="#o"/></g><g id="f"><use transform="matrix(0.05,0,0,0.05,0,0)" xlink:href="#l"/><use transform="matrix(0.05,0,0,0.05,12,0)" xlink:href="#m"/><use transform="matrix(0.05,0,0,0.05,17,0)" xlink:href="#n"/><use transform="matrix(0.05,0,0,0.05,27,0)" xlink:href="#o"/><use transform="matrix(0.05,0,0,0.05,32.95,0)" xlink:href="#p"/></g><linearGradient gradientUnits="userSpaceOnUse" id="g" x1="919" y1="220" x2="919" y2="390"><stop offset="0%" stop-color="#ffe299"/><stop offset="59.43%" stop-color="#fcc438"/><stop offset="100%" stop-color="#f4b004"/></linearGradient><linearGradient gradientUnits="userSpaceOnUse" id="h" x1="420" y1="480" x2="420" y2="650"><stop offset="0%" stop-color="#ffe299"/><stop offset="59.43%" stop-color="#fcc438"/><stop offset="100%" stop-color="#f4b004"/></linearGradient><linearGradient gradientUnits="userSpaceOnUse" id="i" x1="628.67" y1="480" x2="628.67" y2="650"><stop offset="0%" stop-color="#ffe299"/><stop offset="59.43%" stop-color="#fcc438"/><stop offset="100%" stop-color="#f4b004"/></linearGradient><linearGradient gradientUnits="userSpaceOnUse" id="j" x1="834.67" y1="480" x2="834.67" y2="650"><stop offset="0%" stop-color="#ffe299"/><stop offset="59.43%" stop-color="#fcc438"/><stop offset="100%" stop-color="#f4b004"/></linearGradient><linearGradient gradientUnits="userSpaceOnUse" id="k" x1="1048.67" y1="480" x2="1048.67" y2="650"><stop offset="0%" stop-color="#ffe299"/><stop offset="59.43%" stop-color="#fcc438"/><stop offset="100%" stop-color="#f4b004"/></linearGradient></defs></g></svg>